<svg width="48" height="48" viewBox="0 0 48 48" fill="none" xmlns="http://www.w3.org/2000/svg">
<path d="M24 4.00012C21.3736 4.00012 18.7728 4.51744 16.3463 5.52253C13.9198 6.52763 11.715 8.00081 9.85786 9.85799C6.10714 13.6087 4 18.6958 4 24.0001C4 29.3044 6.10714 34.3915 9.85786 38.1423C11.715 39.9994 13.9198 41.4726 16.3463 42.4777C18.7728 43.4828 21.3736 44.0001 24 44.0001C29.3043 44.0001 34.3914 41.893 38.1421 38.1423C41.8929 34.3915 44 29.3044 44 24.0001C44 21.6801 43.58 19.3801 42.78 17.2201L39.58 20.4201C39.86 21.6001 40 22.8001 40 24.0001C40 28.2436 38.3143 32.3132 35.3137 35.3138C32.3131 38.3144 28.2435 40.0001 24 40.0001C19.7565 40.0001 15.6869 38.3144 12.6863 35.3138C9.68571 32.3132 8 28.2436 8 24.0001C8 19.7567 9.68571 15.687 12.6863 12.6864C15.6869 9.68583 19.7565 8.00012 24 8.00012C25.2 8.00012 26.4 8.14012 27.58 8.42012L30.8 5.20012C28.62 4.42012 26.32 4.00012 24 4.00012ZM38 4.00012L30 12.0001V15.0001L24.9 20.1001C24.6 20.0001 24.3 20.0001 24 20.0001C22.9391 20.0001 21.9217 20.4215 21.1716 21.1717C20.4214 21.9218 20 22.9393 20 24.0001C20 25.061 20.4214 26.0784 21.1716 26.8285C21.9217 27.5787 22.9391 28.0001 24 28.0001C25.0609 28.0001 26.0783 27.5787 26.8284 26.8285C27.5786 26.0784 28 25.061 28 24.0001C28 23.7001 28 23.4001 27.9 23.1001L33 18.0001H36L44 10.0001H38V4.00012ZM24 12.0001C20.8174 12.0001 17.7652 13.2644 15.5147 15.5148C13.2643 17.7653 12 20.8175 12 24.0001C12 27.1827 13.2643 30.235 15.5147 32.4854C17.7652 34.7358 20.8174 36.0001 24 36.0001C27.1826 36.0001 30.2348 34.7358 32.4853 32.4854C34.7357 30.235 36 27.1827 36 24.0001H32C32 26.1219 31.1571 28.1567 29.6569 29.657C28.1566 31.1573 26.1217 32.0001 24 32.0001C21.8783 32.0001 19.8434 31.1573 18.3431 29.657C16.8429 28.1567 16 26.1219 16 24.0001C16 21.8784 16.8429 19.8436 18.3431 18.3433C19.8434 16.843 21.8783 16.0001 24 16.0001V12.0001Z" fill="#3271EE"/>
</svg>
