<svg width="32" height="32" viewBox="0 0 32 32" fill="none" xmlns="http://www.w3.org/2000/svg">
<g clip-path="url(#clip0_46_94)">
<path d="M16 9.33333V4H2.66663V28H29.3333V9.33333H16ZM7.99996 25.3333H5.33329V22.6667H7.99996V25.3333ZM7.99996 20H5.33329V17.3333H7.99996V20ZM7.99996 14.6667H5.33329V12H7.99996V14.6667ZM7.99996 9.33333H5.33329V6.66667H7.99996V9.33333ZM13.3333 25.3333H10.6666V22.6667H13.3333V25.3333ZM13.3333 20H10.6666V17.3333H13.3333V20ZM13.3333 14.6667H10.6666V12H13.3333V14.6667ZM13.3333 9.33333H10.6666V6.66667H13.3333V9.33333ZM26.6666 25.3333H16V22.6667H18.6666V20H16V17.3333H18.6666V14.6667H16V12H26.6666V25.3333ZM24 14.6667H21.3333V17.3333H24V14.6667ZM24 20H21.3333V22.6667H24V20Z" fill="#3271EE"/>
</g>
<defs>
<clipPath id="clip0_46_94">
<rect width="32" height="32" fill="white"/>
</clipPath>
</defs>
</svg>
