<svg width="48" height="48" viewBox="0 0 48 48" fill="none" xmlns="http://www.w3.org/2000/svg">
<path d="M24.0002 39.9994C32.8002 39.9994 40.0002 32.7994 40.0002 23.9994C40.0002 15.1994 32.8002 7.99936 24.0002 7.99936C15.2002 7.99936 8.00024 15.1994 8.00024 23.9994C8.00024 32.7994 15.2002 39.9994 24.0002 39.9994ZM24.0002 3.99936C35.0002 3.99936 44.0002 12.9994 44.0002 23.9994C44.0002 34.9994 35.0002 43.9994 24.0002 43.9994C13.0002 43.9994 4.00024 34.9994 4.00024 23.9994C4.00024 12.9994 13.0002 3.99936 24.0002 3.99936ZM34.0002 27.7994L32.6002 30.3994L22.0002 24.5994V13.9994H25.0002V22.7994L34.0002 27.7994Z" fill="#3271EE"/>
</svg>
