<svg width="21" height="20" viewBox="0 0 21 20" fill="none" xmlns="http://www.w3.org/2000/svg">
<path d="M10.4999 -0.000488281C4.96988 -0.000488281 0.499878 4.49951 0.499878 9.99951C0.499878 15.4995 4.99988 19.9995 10.4999 19.9995C15.9999 19.9995 20.4999 15.4995 20.4999 9.99951C20.4999 4.49951 15.9999 -0.000488281 10.4999 -0.000488281ZM14.4999 13.4395C14.4999 13.7795 14.2799 13.9995 13.9399 13.9995H7.05988C6.71988 13.9995 6.49988 13.7795 6.49988 13.4395V12.9995H14.4999V13.4395ZM14.4999 11.9995H6.49988L5.49988 5.99951L8.49988 7.99951L10.4999 4.99951L12.4999 7.99951L15.4999 5.99951L14.4999 11.9995Z" fill="#F27900"/>
</svg>
