<svg width="48" height="48" viewBox="0 0 48 48" fill="none" xmlns="http://www.w3.org/2000/svg">
<path d="M24 0C30.3652 0 36.4697 2.52856 40.9706 7.02944C45.4714 11.5303 48 17.6348 48 24C48 30.3652 45.4714 36.4697 40.9706 40.9706C36.4697 45.4714 30.3652 48 24 48C17.6348 48 11.5303 45.4714 7.02944 40.9706C2.52856 36.4697 0 30.3652 0 24C0 17.6348 2.52856 11.5303 7.02944 7.02944C11.5303 2.52856 17.6348 0 24 0V0ZM24 4C21.3736 4 18.7728 4.51732 16.3463 5.52241C13.9198 6.5275 11.715 8.00069 9.85786 9.85786C6.10714 13.6086 4 18.6957 4 24C4 28.8 5.7 33.2 8.52 36.66L36.66 8.52C33.2 5.7 28.8 4 24 4ZM24 44C29.3043 44 34.3914 41.8929 38.1421 38.1421C41.8929 34.3914 44 29.3043 44 24C44 19.2 42.3 14.8 39.48 11.34L11.34 39.48C14.8 42.3 19.2 44 24 44Z" fill="#3271EE"/>
</svg>
