<svg width="32" height="32" viewBox="0 0 32 32" fill="none" xmlns="http://www.w3.org/2000/svg">
<g clip-path="url(#clip0_5_4)">
<path d="M7.99994 12.0015H10.6666V14.6682H13.3333V17.3348H10.6666V20.0015H7.99994V17.3348H5.33327V14.6682H7.99994V12.0015ZM24.6666 12.0015C25.197 12.0015 25.7057 12.2122 26.0808 12.5873C26.4559 12.9624 26.6666 13.4711 26.6666 14.0015C26.6666 14.5319 26.4559 15.0407 26.0808 15.4157C25.7057 15.7908 25.197 16.0015 24.6666 16.0015C24.1362 16.0015 23.6275 15.7908 23.2524 15.4157C22.8773 15.0407 22.6666 14.5319 22.6666 14.0015C22.6666 13.4711 22.8773 12.9624 23.2524 12.5873C23.6275 12.2122 24.1362 12.0015 24.6666 12.0015ZM20.6666 16.0015C21.197 16.0015 21.7057 16.2122 22.0808 16.5873C22.4559 16.9624 22.6666 17.4711 22.6666 18.0015C22.6666 18.5319 22.4559 19.0407 22.0808 19.4157C21.7057 19.7908 21.197 20.0015 20.6666 20.0015C20.1362 20.0015 19.6275 19.7908 19.2524 19.4157C18.8773 19.0407 18.6666 18.5319 18.6666 18.0015C18.6666 17.4711 18.8773 16.9624 19.2524 16.5873C19.6275 16.2122 20.1362 16.0015 20.6666 16.0015ZM22.6666 6.66818C25.142 6.66818 27.5159 7.65151 29.2663 9.40185C31.0166 11.1522 31.9999 13.5262 31.9999 16.0015C31.9999 18.4769 31.0166 20.8508 29.2663 22.6012C27.5159 24.3515 25.142 25.3348 22.6666 25.3348C20.0533 25.3348 17.6933 24.2682 15.9999 22.5348C14.3066 24.2682 11.9466 25.3348 9.33327 25.3348C6.85792 25.3348 4.48395 24.3515 2.73361 22.6012C0.983269 20.8508 -6.10352e-05 18.4769 -6.10352e-05 16.0015C-6.10352e-05 13.5262 0.983269 11.1522 2.73361 9.40185C4.48395 7.65151 6.85792 6.66818 9.33327 6.66818H22.6666ZM9.33327 9.33485C7.56516 9.33485 5.86947 10.0372 4.61923 11.2875C3.36898 12.5377 2.66661 14.2334 2.66661 16.0015C2.66661 17.7696 3.36898 19.4653 4.61923 20.7156C5.86947 21.9658 7.56516 22.6682 9.33327 22.6682C11.5199 22.6682 13.4533 21.6148 14.6666 20.0015H17.3333C18.5466 21.6148 20.4799 22.6682 22.6666 22.6682C24.4347 22.6682 26.1304 21.9658 27.3807 20.7156C28.6309 19.4653 29.3333 17.7696 29.3333 16.0015C29.3333 14.2334 28.6309 12.5377 27.3807 11.2875C26.1304 10.0372 24.4347 9.33485 22.6666 9.33485H9.33327Z" fill="#5093F6"/>
</g>
<defs>
<clipPath id="clip0_5_4">
<rect width="32" height="32" fill="white"/>
</clipPath>
</defs>
</svg>
